<?xml version="1.0" encoding="UTF-8"?><svg id="Layer_2" xmlns="http://www.w3.org/2000/svg" width="768" height="1366" viewBox="0 0 768 1366"><defs><style>.cls-1{fill:#e4f2e2;}.cls-2{fill:#d7ebd5;}</style></defs><path class="cls-2" d="m57.72,780.35c35.18,1.04,69.43-16.06,93.93-46.88,28.84-36.29,28.68-97.18,28.49-167.69-.15-54.69-.31-116.67,14.48-175C221.65,284.15,149.16,62.11,127.58,0h-27.67c4.8,12.18,10.56,28.62,15.91,48.65,11.02,41.29,22.3,106.54,13.49,182.87-4.7,40.76-10.37,76.96-15.36,108.9-12.24,78.25-21.08,134.79-3.29,180.92,10.19,26.41,13.34,63.32,8.42,98.72-2.49,17.93-10.96,61.09-35.78,74.49-3.28,1.77-8.68,3.95-15.4,3.95-10.06,0-23.07-4.89-36.3-23.35-8.61-12.01-19.72-21.46-31.61-28.91v110.93c13.94,14.02,34.76,22.51,57.72,23.18Z"/><path class="cls-2" d="m56.81,657.08c5.36,7.48,8.99,9.6,10.3,10.16.85.36.92.33,1.47.03,5.29-2.85,15.34-19.35,19.8-51.47,4.22-30.43,1.74-61.57-6.64-83.3-20.78-53.87-11.4-113.85,1.59-196.87,4.95-31.65,10.56-67.52,15.19-107.66,8.2-71.05-2.21-131.85-12.39-170.34-7.04-26.62-14.94-46.55-19.8-57.62H0v610.81c20.93,10.27,41.59,25.04,56.81,46.27Z"/><path class="cls-2" d="m63.41,1081.83c-25.36-2.99-48.09-2.08-63.41-.67v74.66c19.11-5.2,45.06-7.35,72.84,4.55,55.17,23.64,94.97,92.76,118.47,205.64h101.28c-14.61-54.62-44.21-144.59-93.97-212.13-30.04-40.77-75.53-65.01-135.22-72.04Z"/><path class="cls-2" d="m569.02,213.24c33.82,32.39,70.66,51.38,101.09,52.11,38.57.92,73.15.91,97.89.67v-52.22h-43.23c-28.64,0-58.45-12.56-83.94-35.36-24.82-22.21-43.32-52.14-52.08-84.29-9.4-34.46-41.29-71.23-64.1-94.14h-83.27c23.51,32.77,57.35,84.46,67.27,122.88,6.78,26.25,30.47,61.72,60.38,90.36Z"/><path class="cls-2" d="m642.82,801.34c-27.85-43.64-49.3-83.3-66.53-115.17-38.31-70.83-56.43-101.91-84.47-96.66-21.31,4-35.99,12.04-42.46,23.26-6.79,11.78-4.19,25.66-.81,35.23,4.53,12.83,36.46,65.19,80.16,127.41,49.68,70.74,95.86,127.67,126.71,156.21,39.83,36.84,80.71,87.99,112.59,140.37v-163.72c-19.59-5.12-38.93-14.99-57.51-29.38-23.85-18.47-46.62-44.57-67.67-77.55Z"/><path class="cls-2" d="m661.5,155.33c19.79,17.71,42.26,27.47,63.27,27.47h43.23V0h-200.96c21.15,24.26,43.22,55.21,51.61,85.99,7.21,26.45,22.43,51.07,42.85,69.34Z"/><path class="cls-2" d="m61,1189.02c-24.32-10.57-46.96-5.99-61-.76v177.74h159.62c-26.34-121.35-67.48-163.46-98.61-176.98Z"/><path class="cls-2" d="m634.35,954.38c-74.97-69.35-202.98-261.88-215.05-296.05-7.83-22.2-6.7-43.88,3.19-61.03,11.29-19.58,32.69-32.44,63.6-38.24,32.64-6.12,53.22,13.03,65.87,27.97,16.43,19.41,31.94,48.09,51.59,84.41,17.88,33.06,38.16,70.54,65.4,113.24,30.59,47.95,64.67,79.27,99.05,91.22v-82.91c-30.05-20.01-57.65-57.38-82.2-111.38-25.9-56.98-59.83-113.21-95.53-158.33-40.48-51.16-80.79-84.99-116.55-97.83-22.94-8.24-43.2-7.8-61.92,1.35-104.26,50.97-132.34,121.68-96.91,244.08,42.4,146.47,123.36,203.59,149.97,222.36,2.54,1.79,6.12,4.14,10.26,6.85,30.42,19.91,101.65,66.53,164.34,160.26,56.51,84.48,93.25,186.92,109.83,305.66h18.69v-229.57c-39.34-80.27-95.68-146.94-133.65-182.05Z"/><path class="cls-2" d="m458.16,926.02c-4.39-2.87-8.18-5.35-11.16-7.46-20.41-14.4-51.11-38.09-81.91-77.34-34.86-44.43-61.76-98.84-79.97-161.73-20.66-71.39-20.64-128.78.09-175.46,19.02-42.85,55.98-77.22,112.98-105.09,26.27-12.84,55.2-13.74,86.01-2.68,41.22,14.8,86.3,52.07,130.38,107.77,37.21,47.03,72.53,105.53,99.44,164.74,19.23,42.31,37.99,68.23,53.98,84.11v-455.86c-8.48.08-18.09.13-28.6.13-20.5,0-44.4-.2-70.03-.81-52.11-1.24-98.67-38.57-121.79-60.71-34.29-32.84-60.71-73.08-68.95-105-10.65-41.27-55.94-104.34-75.78-130.62h-242.47c9.89,29.03,25.82,78.36,39.98,133.69,30.47,119.09,38.65,208.14,24.31,264.7-13.83,54.54-13.68,111.87-13.53,167.3.2,73.17.38,142.27-35.22,187.07-29.74,37.42-71.53,58.64-115.17,58.64-1.31,0-2.62-.02-3.93-.06-20.71-.61-40.28-6.12-56.82-15.59v254.26c16.66-1.4,39.96-2.08,66.06.92,68.04,7.8,122.51,37.04,157.52,84.56,33.85,45.94,62.8,105.92,86.04,178.28,6.32,19.68,11.3,37.48,15.09,52.24h393.31c-28.63-197.97-115.7-345.63-259.86-439.98Z"/><path class="cls-1" d="m31.61,675.14c13.23,18.47,26.24,23.35,36.3,23.35,6.71,0,12.12-2.18,15.4-3.95,24.82-13.4,33.29-56.56,35.78-74.49,4.91-35.4,1.76-72.31-8.42-98.72-17.79-46.13-8.95-102.67,3.29-180.92,5-31.94,10.66-68.13,15.36-108.9,8.81-76.33-2.48-141.58-13.49-182.87-5.34-20.03-11.1-36.46-15.91-48.65h-33.59c4.86,11.07,12.76,31,19.8,57.62,10.18,38.49,20.58,99.29,12.39,170.34-4.63,40.14-10.24,76.01-15.19,107.66-12.99,83.02-22.37,143-1.59,196.87,8.38,21.73,10.87,52.87,6.64,83.3-4.46,32.12-14.51,48.62-19.8,51.47-.55.3-.63.34-1.47-.03-1.31-.56-4.94-2.68-10.3-10.16-15.22-21.23-35.88-36.01-56.81-46.27v35.42c11.89,7.44,23.01,16.9,31.61,28.91Z"/><path class="cls-1" d="m60.75,811.39c43.64,0,85.42-21.22,115.17-58.64,35.6-44.79,35.42-113.9,35.22-187.07-.15-55.44-.3-112.76,13.53-167.3,14.34-56.55,6.16-145.61-24.31-264.7-14.16-55.32-30.09-104.66-39.98-133.69h-32.79c21.58,62.11,94.07,284.15,67.04,390.76-14.79,58.33-14.62,120.32-14.48,175,.19,70.51.35,131.41-28.49,167.69-24.5,30.82-58.75,47.92-93.93,46.88-22.97-.67-43.78-9.17-57.72-23.18v38.58c16.54,9.47,36.11,14.98,56.82,15.59,1.31.04,2.62.06,3.93.06Z"/><path class="cls-1" d="m640.83,178.43c25.49,22.8,55.3,35.36,83.94,35.36h43.23v-31h-43.23c-21,0-43.47-9.75-63.27-27.47-20.42-18.27-35.63-42.89-42.85-69.34-8.39-30.77-30.46-61.72-51.61-85.99h-42.4c22.81,22.91,54.7,59.68,64.1,94.14,8.77,32.15,27.26,62.08,52.08,84.29Z"/><path class="cls-1" d="m547.58,235.63c23.12,22.14,69.68,59.47,121.79,60.71,25.63.61,49.54.81,70.03.81,10.51,0,20.11-.05,28.6-.13v-31c-24.74.23-59.32.25-97.89-.67-30.42-.72-67.27-19.72-101.09-52.11-29.9-28.64-53.6-64.11-60.38-90.36-9.91-38.42-43.76-90.11-67.27-122.88h-38.53c19.84,26.28,65.13,89.36,75.78,130.62,8.24,31.93,34.66,72.16,68.95,105Z"/><path class="cls-1" d="m475.14,900.08c-4.14-2.71-7.72-5.06-10.26-6.85-26.61-18.77-107.57-75.89-149.97-222.36-35.43-122.4-7.36-193.12,96.91-244.08,18.72-9.15,38.97-9.59,61.92-1.35,35.76,12.84,76.07,46.67,116.55,97.83,35.7,45.12,69.63,101.35,95.53,158.33,24.55,54,52.14,91.37,82.2,111.38v-40.1c-15.99-15.87-34.75-41.8-53.98-84.11-26.91-59.2-62.22-117.71-99.44-164.74-44.08-55.7-89.16-92.97-130.38-107.77-30.81-11.06-59.74-10.16-86.01,2.68-57,27.87-93.96,62.24-112.98,105.09-20.72,46.68-20.75,104.08-.09,175.46,18.21,62.89,45.11,117.31,79.97,161.73,30.8,39.25,61.5,62.94,81.91,77.34,2.98,2.1,6.77,4.58,11.16,7.46,144.15,94.35,231.23,242.01,259.86,439.98h31.29c-16.59-118.74-53.33-221.18-109.83-305.66-62.69-93.73-133.92-140.35-164.34-160.26Z"/><path class="cls-1" d="m655.41,931.62c-30.84-28.53-77.03-85.47-126.71-156.21-43.69-62.22-75.63-114.58-80.16-127.41-3.38-9.57-5.98-23.45.81-35.23,6.47-11.22,21.15-19.26,42.46-23.26,28.04-5.26,46.16,25.83,84.47,96.66,17.24,31.86,38.69,71.52,66.53,115.17,21.04,32.98,43.81,59.08,67.67,77.55,18.59,14.4,37.92,24.27,57.51,29.38v-32.39c-34.38-11.95-68.45-43.27-99.05-91.22-27.25-42.7-47.52-80.18-65.4-113.24-19.64-36.32-35.16-65-51.59-84.41-12.64-14.94-33.22-34.09-65.87-27.97-30.91,5.8-52.31,18.66-63.6,38.24-9.89,17.16-11.03,38.83-3.19,61.03,12.06,34.17,140.07,226.7,215.05,296.05,37.96,35.11,94.31,101.78,133.65,182.05v-64.44c-31.88-52.38-72.77-103.53-112.59-140.37Z"/><path class="cls-1" d="m72.84,1160.36c-27.78-11.9-53.73-9.75-72.84-4.55v32.45c14.04-5.23,36.68-9.81,61,.76,31.13,13.52,72.27,55.64,98.61,176.98h31.7c-23.5-112.88-63.3-182-118.47-205.64Z"/><path class="cls-1" d="m223.58,1135.48c-35.01-47.52-89.48-76.75-157.52-84.56-26.1-2.99-49.39-2.31-66.06-.92v31.15c15.32-1.42,38.05-2.32,63.41.67,59.68,7.04,105.18,31.28,135.22,72.04,49.76,67.54,79.36,157.51,93.97,212.13h32.12c-3.79-14.76-8.77-32.56-15.09-52.24-23.24-72.35-52.19-132.33-86.04-178.28Z"/></svg>