<?xml version="1.0" encoding="UTF-8"?><svg id="Layer_1" xmlns="http://www.w3.org/2000/svg" width="660.48mm" height="69.5mm" viewBox="0 0 1872.23 197"><defs><style>.cls-1{fill:#1b3b20;}.cls-2{fill:#d97110;}.cls-3{fill:#403619;}.cls-4{fill:#dde09b;}.cls-5{fill:#d8992c;}.cls-6{fill:#82b679;}</style></defs><rect class="cls-5" x="0" y="80.92" width="1872.23" height="14.18" rx="6.39" ry="6.39"/><path class="cls-3" d="m512.32,116.59c6.65-4.72,13.29-9.44,19.94-14.16-1.88.22-3.75.45-5.63.67-1.04-.6-2.08-1.21-3.12-1.81-1.01-.45-2.01-.89-3.02-1.34h-92.63v-52.69h65.39c6.7-4.73,13.4-9.45,20.1-14.18-1.3-.32-2.6-.64-3.9-.96h-3.77c-1.06-.03-2.41.02-3.94.34-1.19.24-2.2.59-3.03.93h-125.33v143.1l-10.9.8V33.39c-2.42-1.68-4.84-3.35-7.26-5.03-1.23-1.99-2.46-3.99-3.69-5.98-.18-2.79-.37-5.57-.55-8.36-5.25,6.46-10.5,12.91-15.74,19.37v66.56c-1.59-4.93-3.17-9.86-4.76-14.78-1.03.54-2.06,1.08-3.08,1.62-.32-2.06-.63-4.12-.95-6.18-5.24,6.45-10.49,12.9-15.73,19.35v16.64h24.52v72.1h27.24l10.9-6.33v6.33h119.88c6.61-4.72,13.21-9.44,19.82-14.16-1.19-.27-2.39-.55-3.58-.82-.64-.69-1.27-1.38-1.91-2.07-1.14-.79-2.29-1.57-3.43-2.36h-76.29v-52.69h84.46Z"/><path class="cls-3" d="m711.21,50.03c6.51-4.72,13.03-9.44,19.54-14.16-.63-.29-1.27-.57-1.9-.86-.59-.54-1.19-1.07-1.78-1.61-.74,0-1.49,0-2.23,0h-90.42l-1.09-13.4-1.19-1.1-2.21,2.53-.82,11.97h-7.8v140.62l-3.19,2.85-10.43.93V33.39c-16.25-.46-32.5-.93-48.75-1.39l3.1-9.8c.8-2.73,1.6-5.45,2.4-8.18-5.56,6.46-11.13,12.91-16.69,19.37-2.72,5.55-5.45,11.09-8.17,16.64h46.32v138.66h21.8l13.62-7.94v7.94h54.49c6.96-4.72,13.93-9.45,20.89-14.17-2.37-.25-4.73-.51-7.1-.76-4.6,1.42-9.19,2.83-13.79,4.25V50.03h35.42Z"/><path class="cls-3" d="m269.84,123.3c-2.38-4.2-6.01-10.59-13.62-13.62-4.12-1.64-7.91-1.7-10.33-1.52,11.77-6.43,19.62-18.86,19.62-33.94,0-22.41-17.87-40.82-40.11-40.82h-86.33v142.92l-10.9.97V33.39h-12.62c.77-4.44,1.54-8.87,2.32-13.31l1.49-6.01c-5.24,6.44-10.47,12.88-15.7,19.32v155.3h24.52l10.9-6.32v6.32h91.35c3.83-.19,18.93-1.37,31.26-13.62,4.38-4.36,13.16-14.83,13.62-29.97.07-2.4.15-11.92-5.45-21.8Zm-73.56-70.84c6.36,0,12.71,0,19.07,0,14.5-.2,26.06,10.02,27.24,21.8,1.18,11.75-8.37,21.49-16.38,24.94-4.03,1.74-8.63,2.63-13.59,2.31h-16.35v-49.04Zm59.94,95.36c-1.88,11.64-13.12,21.18-27.24,21.8h-32.69v-49.04h35.42c2.58-.26,8.15-.45,13.62,2.72,8.8,5.1,12.28,15.96,10.9,24.52Z"/><path class="cls-3" d="m1081.76,174.02c-4.55,1.59-9.09,3.18-13.64,4.77v-55.49c19.07-30.88,38.14-61.76,57.21-92.63h-9.04l1.43-19.37-16.91,19.37c-12.71,19.41-25.43,38.81-38.14,58.22-9.99-18.48-19.98-36.96-29.97-55.45h-57.21c21.96,48.12,43.91,96.24,65.87,144.35l-13.28,1.12c-22.98-48.51-45.96-97.02-68.93-145.53h-10.22l-4.14-9.16c-.22-1.36-.43-2.71-.65-4.07.83-1.22,1.67-2.43,2.5-3.65-.2-.83-.41-1.66-.61-2.49-4.71,6.46-9.42,12.91-14.13,19.37,14.53,29.58,29.06,59.16,43.59,88.74v66.56h57.21l10.97-5.82c.89,1.94,1.77,3.88,2.66,5.82h21.8c6.97-4.72,13.95-9.44,20.92-14.16-.3-.5-.59-.99-.89-1.49-2.13.33-4.26.66-6.39.99Z"/><path class="cls-3" d="m905.11,49.99c6.52-4.72,13.03-9.45,19.55-14.17-.52-.07-1.04-.14-1.56-.21-.58-.31-1.16-.62-1.74-.93-.88-.44-1.76-.88-2.63-1.32h-90.85l-1-13.54-.86-.98-2.21,3.19-.4,11.33h-8.22v143.96l-.75-.66h-12.87V33.35h-54.22c2.54-2.77,5.08-5.54,7.62-8.3,1.12-3.68,2.24-7.37,3.36-11.05-5.56,6.45-11.13,12.9-16.69,19.36-2.72,5.55-5.45,11.09-8.17,16.64h46.32v138.66h21.8l13.62-7.95v7.95h54.49c6.96-4.72,13.93-9.43,20.89-14.15-.41-.19-.82-.38-1.23-.57-6.55,1.5-13.11,3-19.66,4.5V49.99h35.42Z"/><polygon class="cls-2" points="1105.68 25.8 1117.72 11.31 1118.07 11.5 1117.32 13.84 1109.66 25.99 1108.06 26.76 1106.04 26.68 1105.68 25.8"/><path class="cls-2" d="m517.19,111.72l15.07-9.29-1.59-1.56-8.47.65c1.05-2.15,2.11-4.29,3.16-6.44h-92.63v-52.69h65.39l15.23-9.3-2.61-1.99-8.3.31c.38-.96.76-1.92,1.13-2.88h-125.33v143.1l-10.9.8V28.52h-14.71l-.19-13.67-1.47-.83-10.87,14.5v66.56h-11.69v-13.74l-1.98-.74-10.86,14.48v16.64h24.52v72.1h27.24l10.9-6.33v6.33h119.88l14.95-9.29-1.68-1.28-7.63.52c1.75-3.12,3.5-6.24,5.25-9.36h-76.29v-52.69h84.46Z"/><path class="cls-2" d="m716.08,45.16l14.67-9.29-.57-.59h-6.01c1.84-2.25,3.69-4.51,5.53-6.76h-90.42l-1.09-13.4-1.19-1.1-2.21,2.53-.82,11.97h-7.8v144.88l-3.19-1.41-10.43.93V28.52h-53.56l6.37-13.4-.93-1.1-11.82,14.5c-2.72,5.55-5.45,11.09-8.17,16.64h46.32v138.66h21.8l13.62-7.94v7.94h54.49l16.02-9.3-3.33-2.02-12.69.64V45.16h35.42Z"/><path class="cls-2" d="m274.71,118.43c-2.38-4.2-6.01-10.59-13.62-13.62-4.12-1.64-7.91-1.7-10.33-1.52,11.77-6.43,19.62-18.86,19.62-33.94,0-22.41-17.87-40.82-40.11-40.82h-86.33v142.92l-10.9.97V28.52h-12.62l.36-13.99-1.43-.46-10.83,14.45v155.3h24.52l10.9-6.32v6.32h91.35c3.83-.19,18.93-1.37,31.26-13.62,4.38-4.36,13.16-14.83,13.62-29.97.07-2.4.15-11.92-5.45-21.8Zm-73.56-70.84c6.36,0,12.71,0,19.07,0,14.5-.2,26.06,10.02,27.24,21.8,1.18,11.75-8.37,21.49-16.38,24.94-4.03,1.74-8.63,2.63-13.59,2.31h-16.35v-49.04Zm59.94,95.36c-1.88,11.64-13.12,21.18-27.24,21.8h-32.69v-49.04h35.42c2.58-.26,8.15-.45,13.62,2.72,8.8,5.1,12.28,15.96,10.9,24.52Z"/><path class="cls-2" d="m1084.38,173.98l-11.39-.06v-55.49c19.07-30.88,38.14-61.76,57.21-92.63h-24.52c-12.71,19.41-25.43,38.81-38.14,58.22-9.99-18.48-19.98-36.96-29.97-55.45h-57.21c21.96,48.12,43.91,96.24,65.87,144.35l-13.28,1.12c-22.98-48.51-45.96-97.02-68.93-145.53h-10.22l-4.14-9.16-2.43-4.05-.75-1.16-.44-.13-9.26,14.49c14.53,29.58,29.06,59.16,43.59,88.74v66.56h57.21l10.97-5.82c.89,1.94,1.77,3.88,2.66,5.82h21.8l16.05-9.29-.74-.55h-3.92Z"/><path class="cls-2" d="m909.98,45.12l14.68-9.3-.8-.57h-5.8c1.85-2.26,3.69-4.51,5.54-6.77h-90.85l-1-13.54-.86-.98-2.21,3.19-.4,11.33h-8.22v143.96l-.75-.66h-12.87V28.48h-54.22l6.38-13.47-.28-1.01-11.82,14.49c-2.72,5.55-5.45,11.09-8.17,16.64h46.32v138.66h21.8l13.62-7.95v7.95h54.49l16.02-9.28-.44-.55-15.58-.39V45.12h35.42Z"/><rect x="121.97" y="16.63" width="24.52" height="155.3"/><polygon points="353.55 83.19 329.03 83.19 329.03 99.83 353.55 99.83 353.55 171.93 380.8 171.93 380.8 16.63 353.55 16.63 353.55 83.19"/><path d="m446.18,30.5h65.39c1.82-4.62,3.63-9.24,5.45-13.87h-125.33v155.3h119.88c3.63-6.47,7.27-12.94,10.9-19.41h-76.29v-52.69h84.46c2.72-5.55,5.45-11.09,8.17-16.64h-92.63V30.5Z"/><path d="m557.89,33.27h46.32v138.66h21.8V16.63h-59.94c-2.72,5.55-5.45,11.09-8.17,16.64Z"/><path d="m639.62,171.93h54.49V33.27h35.42c4.54-5.55,9.08-11.09,13.62-16.64h-103.53v155.3Z"/><path d="m274.54,92.92c-4.12-1.64-7.91-1.7-10.33-1.52,11.77-6.43,19.62-18.86,19.62-33.94,0-22.41-17.87-40.82-40.11-40.82h-86.33v155.3h91.35c3.83-.19,18.93-1.37,31.26-13.62,4.38-4.36,13.16-14.83,13.62-29.97.07-2.4.15-11.92-5.45-21.8-2.38-4.2-6.01-10.59-13.62-13.62Zm-59.94-57.21c6.36,0,12.71,0,19.07,0,14.5-.2,26.06,10.02,27.24,21.8,1.18,11.75-8.37,21.49-16.38,24.93-4.03,1.74-8.63,2.63-13.59,2.31h-16.35v-49.04Zm59.94,95.36c-1.88,11.64-13.12,21.18-27.24,21.8h-32.69v-49.04h35.42c2.58-.26,8.15-.45,13.62,2.72,8.8,5.1,12.28,15.96,10.9,24.52Z"/><path d="m950.21,16.63c14.53,29.58,29.06,59.16,43.59,88.74v66.56h57.21c-24.52-51.77-49.04-103.53-73.56-155.3h-27.24Z"/><path d="m1080.99,72.13c-9.99-18.48-19.98-36.96-29.97-55.45h-57.21c23.61,51.75,47.22,103.5,70.84,155.25h21.8v-65.39c19.07-30.88,38.14-61.76,57.21-92.63h-24.52c-12.71,19.41-25.43,38.81-38.14,58.22Z"/><path d="m751.78,33.23h46.32v138.66h21.8V16.59h-59.94c-2.72,5.55-5.45,11.09-8.17,16.64Z"/><path d="m833.52,171.89h54.49V33.23h35.42c4.54-5.55,9.08-11.09,13.62-16.64h-103.53v155.3Z"/><polygon class="cls-4" points="553.71 35.88 601.6 35.88 601.6 174.53 628.6 174.53 628.6 14.03 564.44 14.03 553.71 35.88"/><polygon class="cls-4" points="637.02 14.03 637.02 174.53 696.72 174.53 696.72 35.88 730.77 35.88 748.65 14.03 637.02 14.03"/><polygon class="cls-4" points="350.95 80.59 326.43 80.59 326.43 102.43 350.95 102.43 350.95 174.53 383.4 174.53 383.4 14.03 350.95 14.03 350.95 80.59"/><polygon class="cls-4" points="448.79 33.1 513.35 33.1 520.84 14.03 389.09 14.03 389.09 174.53 513.1 174.53 526.92 149.91 448.79 149.91 448.79 102.43 532.26 102.43 543 80.59 448.79 80.59 448.79 33.1"/><rect class="cls-4" x="119.37" y="14.03" width="29.73" height="160.5"/><path class="cls-4" d="m275.5,90.5c-1.19-.47-2.41-.85-3.66-1.14,9.25-7.65,14.59-19.11,14.59-31.91,0-23.94-19.16-43.42-42.71-43.42h-88.94v160.5h94.08c5.85-.29,20.77-2.26,32.97-14.38,5.17-5.14,13.91-16.1,14.39-31.74.11-3.69-.22-13.35-5.79-23.16-2.42-4.26-6.46-11.39-14.92-14.75Zm-58.3-52.19h16.5c12.58-.15,23.52,8.56,24.62,19.45,1.12,11.1-8.49,19.56-14.82,22.28-3.89,1.67-8.06,2.38-12.56,2.1h-13.74v-43.83Zm54.76,92.34c-1.75,10.82-12.18,19.07-24.67,19.61h-30.09v-43.83h33.08c3.08-.33,7.67-.17,12.05,2.37,7.9,4.58,10.83,14.46,9.63,21.85Z"/><polygon class="cls-4" points="946.04 14.03 991.2 105.98 991.2 174.53 1055.14 174.53 979.11 14.03 946.04 14.03"/><polygon class="cls-4" points="1117.73 11.31 1081.2 67.05 1052.58 14.08 989.76 14.08 1062.97 174.53 1089.04 174.53 1089.04 107.28 1148.32 11.31 1117.73 11.31"/><polygon class="cls-4" points="747.6 35.83 795.5 35.83 795.5 174.49 822.5 174.49 822.5 13.99 758.34 13.99 747.6 35.83"/><polygon class="cls-4" points="830.92 174.49 890.61 174.49 890.61 35.83 924.66 35.83 942.55 13.99 830.92 13.99 830.92 174.49"/><rect class="cls-6" x="129.35" y="9.25" width="24.52" height="155.3"/><path class="cls-1" d="m156.47,167.15h-29.73V6.65h29.73v160.5Zm-24.52-5.21h19.31V11.86h-19.31v150.09Z"/><polygon class="cls-6" points="360.93 75.81 336.41 75.81 336.41 92.45 360.93 92.45 360.93 164.55 388.18 164.55 388.18 9.25 360.93 9.25 360.93 75.81"/><path class="cls-1" d="m390.78,167.15h-32.45v-72.1h-24.52v-21.85h24.52V6.65h32.45v160.5Zm-27.24-5.21h22.04V11.86h-22.04v66.56h-24.52v11.43h24.52v72.1Z"/><path class="cls-6" d="m453.56,23.12h65.39c1.82-4.62,3.63-9.24,5.45-13.87h-125.33v155.3h119.88c3.63-6.47,7.27-12.94,10.9-19.41h-76.29v-52.69h84.46c2.72-5.55,5.45-11.09,8.17-16.64h-92.63V23.12Z"/><path class="cls-1" d="m520.48,167.15h-124.01V6.65h131.75l-7.5,19.07h-64.56v47.48h94.21l-10.73,21.85h-83.48v47.48h78.13l-13.82,24.62Zm-118.8-5.21h115.75l7.98-14.2h-74.44v-57.9h85.44l5.62-11.43h-91.06V20.51h66.22l3.4-8.66h-118.9v150.09Z"/><path class="cls-6" d="m565.27,25.89h46.32v138.66h21.8V9.25h-59.94c-2.72,5.55-5.45,11.09-8.17,16.64Z"/><path class="cls-1" d="m635.98,167.15h-27V28.5h-47.89l10.73-21.85h64.16v160.5Zm-21.8-5.21h16.59V11.86h-55.71l-5.62,11.43h44.74v138.66Z"/><path class="cls-6" d="m647,164.55h54.49V25.89h35.42c4.54-5.55,9.08-11.09,13.62-16.64h-103.53v155.3Z"/><path class="cls-1" d="m704.1,167.15h-59.7V6.65h111.63l-17.89,21.85h-34.05v138.66Zm-54.49-5.21h49.28V23.29h36.79l9.36-11.43h-95.43v150.09Z"/><path class="cls-6" d="m281.92,85.54c-4.12-1.64-7.91-1.7-10.33-1.52,11.77-6.43,19.62-18.86,19.62-33.94,0-22.41-17.87-40.82-40.11-40.82h-86.33v155.3h91.35c3.83-.19,18.93-1.37,31.26-13.62,4.38-4.36,13.16-14.83,13.62-29.97.07-2.4.15-11.92-5.45-21.8-2.38-4.2-6.01-10.59-13.62-13.62Zm-59.94-57.21c6.36,0,12.71,0,19.07,0,14.5-.2,26.06,10.02,27.24,21.8,1.18,11.75-8.37,21.49-16.38,24.93-4.03,1.74-8.63,2.63-13.59,2.31h-16.35V28.32Zm59.94,95.36c-1.88,11.64-13.12,21.18-27.24,21.8h-32.69v-49.04h35.42c2.58-.26,8.15-.45,13.62,2.72,8.8,5.1,12.28,15.96,10.9,24.52Z"/><path class="cls-1" d="m221.98,167.15h-59.82V6.65h88.94c23.55,0,42.71,19.48,42.71,43.42,0,12.8-5.34,24.26-14.59,31.91,1.25.28,2.47.66,3.66,1.14,8.47,3.37,12.51,10.5,14.93,14.76,5.56,9.8,5.9,19.46,5.79,23.16-.48,15.64-9.22,26.6-14.39,31.74-12.19,12.12-27.12,14.09-32.97,14.38h-34.26Zm-54.61-5.21h88.74c5.12-.25,18.51-2.01,29.42-12.86,4.62-4.59,12.43-14.37,12.86-28.2.1-3.26-.2-11.78-5.11-20.43-2.34-4.14-5.56-9.8-12.32-12.49h0c-2.84-1.13-5.92-1.58-9.18-1.35l-11.96.87,10.52-5.75c11.43-6.25,18.26-18.08,18.26-31.66,0-21.07-16.82-38.22-37.5-38.22h-83.73v150.09Zm54.61-13.86h-2.6v-54.25h37.89c3.85-.37,9.54-.13,15.06,3.08,10.4,6.03,13.6,18.32,12.16,27.19h0c-2.14,13.24-14.64,23.33-29.7,23.98h-32.81Zm2.6-5.21h30.09c12.5-.54,22.92-8.79,24.67-19.61h0c1.2-7.39-1.73-17.27-9.63-21.85-4.38-2.54-8.98-2.7-12.05-2.39h-.26s-32.81.01-32.81.01v43.83Zm15.75-62.84c-.72,0-1.45-.02-2.18-.07h-18.78s0-54.24,0-54.24h21.67c15.45-.18,28.45,10.4,29.84,24.14,1.24,12.36-8.31,23.44-17.94,27.59-3.99,1.72-8.22,2.59-12.61,2.59Zm-15.75-5.27h13.74c4.5.28,8.68-.42,12.56-2.1,6.32-2.72,15.93-11.18,14.82-22.28-1.09-10.9-12.07-19.69-24.62-19.45h-16.5s0,43.83,0,43.83Z"/><path class="cls-6" d="m957.6,9.25c14.53,29.58,29.06,59.16,43.59,88.74v66.56h57.21c-24.52-51.77-49.04-103.53-73.56-155.3h-27.24Z"/><path class="cls-1" d="m1062.51,167.15h-63.93v-68.55l-45.17-91.95h33.08l76.03,160.5Zm-58.72-5.21h50.49L983.19,11.86h-21.42l42.02,85.53v64.56Z"/><path class="cls-6" d="m1088.37,64.75c-9.99-18.48-19.98-36.96-29.97-55.45h-57.21c23.61,51.75,47.22,103.5,70.84,155.25h21.8v-65.39c19.07-30.88,38.14-61.76,57.21-92.63h-24.52c-12.71,19.41-25.43,38.81-38.14,58.22Z"/><path class="cls-1" d="m1096.42,167.15h-26.07l-.7-1.52L997.14,6.7h62.82l28.63,52.97,36.52-55.74h30.6l-59.28,95.98v67.25Zm-22.73-5.21h17.52v-63.52l55.15-89.29h-18.45l-39.76,60.69-31.31-57.92h-51.61l68.46,150.04Z"/><path class="cls-6" d="m759.16,25.85h46.32v138.66h21.8V9.21h-59.94c-2.72,5.55-5.45,11.09-8.17,16.64Z"/><path class="cls-1" d="m829.88,167.11h-27V28.45h-47.89l10.73-21.85h64.16v160.5Zm-21.8-5.21h16.59V11.81h-55.71l-5.62,11.43h44.74v138.66Z"/><path class="cls-6" d="m840.9,164.51h54.49V25.85h35.42c4.54-5.55,9.08-11.09,13.62-16.64h-103.53v155.3Z"/><path class="cls-1" d="m897.99,167.11h-59.7V6.61h111.63l-17.89,21.85h-34.05v138.66Zm-54.49-5.21h49.28V23.24h36.79l9.36-11.43h-95.43v150.09Z"/><path class="cls-3" d="m1231.1,176.53c.56-1.08,1.12-2.17,1.68-3.25,30.96-47.83,61.92-95.66,92.89-143.49h-93.32l7.77-12.95.39-2.21-.31-.19-12.65,15.35c-3.85,6.73-7.7,13.47-11.54,20.2h66.37c-28.86,41.36-57.72,82.72-86.57,124.09,5.77,6.73,11.54,13.47,17.31,20.2,6.3-4.16,12.59-8.32,18.89-12.48-.14-.9-.28-1.8-.42-2.7-.16-.85-.33-1.71-.49-2.56Z"/><path class="cls-3" d="m1308.34,171.19c29.82-43.29,59.64-86.57,89.46-129.86-1.92-3.85-3.85-7.7-5.77-11.54h-51.94c-37.37,54.83-74.74,109.66-112.11,164.49h138.08c6.63-4.75,13.27-9.5,19.9-14.24h0c.69-2.45,1.37-4.9,2.06-7.35.1-.56.2-1.12.3-1.68-.69.06-1.37.12-2.06.18h-77.92Z"/><path class="cls-3" d="m1561.68,57.66c-20.01-23.25-46.75-26.96-55.43-27.72-24.56-2.15-43.03,7.17-49.89,11.09v119.69l-3.73-2.55-10.13-8.89V49.34c-3.17,2.48-31.16,25.19-30.49,63.75.64,36.89,27,58.25,30.49,60.97l13.86-5.67v16.76c8.24,4.75,28.17,14.66,52.66,11.09,39.77-5.8,70.72-44.1,72.06-83.15,1.06-31-16.89-52.51-19.4-55.43Zm-13.86,94.23c-14.38,17.36-33.49,21.27-38.8,22.17V49.34c5.85.38,18.53,2.05,30.49,11.09,18.72,14.15,21.42,35.59,22.17,41.57.85,6.75,2.71,29.9-13.86,49.89Z"/><polygon class="cls-2" points="1471.24 20.38 1466.83 29.88 1472.08 33.78 1474.65 27.85 1471.24 20.38"/><path class="cls-2" d="m1565.08,51.2c-20.01-23.25-46.75-26.96-55.43-27.72-24.56-2.15-43.03,7.17-49.89,11.09v119.69l-3.73-2.55-10.13-8.89V42.89c-3.17,2.48-31.16,25.19-30.49,63.75.64,36.89,27,58.25,30.49,60.97l13.86-5.67v16.76c8.24,4.75,28.17,14.66,52.66,11.09,39.77-5.8,70.72-44.1,72.06-83.15,1.06-31-16.89-52.51-19.4-55.43Zm-13.86,94.23c-14.38,17.36-33.49,21.27-38.8,22.17V42.89c5.85.38,18.53,2.05,30.49,11.09,18.72,14.15,21.42,35.59,22.17,41.57.85,6.75,2.71,29.9-13.86,49.89Z"/><path d="m1429.65,94.04c.64,36.89,27,58.25,30.49,60.97V30.29c-3.17,2.48-31.16,25.19-30.49,63.75Z"/><path d="m1523.89,10.89c-24.56-2.15-43.03,7.17-49.89,11.09v144.12c8.24,4.75,28.17,14.66,52.66,11.09,39.77-5.8,70.72-44.1,72.06-83.15,1.06-31-16.89-52.51-19.4-55.43-20.01-23.25-46.75-26.96-55.43-27.72Zm41.57,121.95c-14.38,17.36-33.49,21.27-38.8,22.17V30.29c5.85.38,18.53,2.05,30.49,11.09,18.72,14.15,21.42,35.59,22.17,41.57.85,6.75,2.71,29.9-13.86,49.89Z"/><path class="cls-3" d="m1763.12,57.66c-20.01-23.25-46.75-26.96-55.43-27.72-24.56-2.15-43.03,7.17-49.89,11.09v119.69l-3.73-2.55-10.13-8.89V49.34c-3.17,2.48-31.16,25.19-30.49,63.75.64,36.89,27,58.25,30.49,60.97l13.86-5.67v16.76c8.24,4.75,28.17,14.66,52.66,11.09,39.77-5.8,70.72-44.1,72.06-83.15,1.06-31-16.89-52.51-19.4-55.43Zm-13.86,94.23c-14.38,17.36-33.49,21.27-38.8,22.17V49.34c5.85.38,18.53,2.05,30.49,11.09,18.72,14.15,21.42,35.59,22.17,41.57.85,6.75,2.71,29.9-13.86,49.89Z"/><polygon class="cls-2" points="1344.49 25.38 1357.29 10.03 1357.74 10.51 1347.29 26.25 1345.12 26.25 1344.49 25.38"/><polygon class="cls-2" points="1672.68 20.38 1668.27 29.88 1673.53 33.78 1676.09 27.85 1672.68 20.38"/><path class="cls-2" d="m1230.1,176.27l-2.71-.82c34.23-50.02,68.45-100.05,102.68-150.07h-93.32l7.77-12.95.39-2.21-.31-.19-12.65,15.35c-3.85,6.73-7.7,13.47-11.54,20.2h66.37c-28.86,41.36-57.72,82.72-86.57,124.09,5.77,6.73,11.54,13.47,17.31,20.2l14.49-8.07-.09-.63-1.82-4.89Z"/><path class="cls-2" d="m1312.75,166.78c29.82-43.29,59.64-86.57,89.46-129.86-1.92-3.85-3.85-7.7-5.77-11.54h-51.94c-37.37,54.83-74.74,109.66-112.11,164.49h138.08l15.5-9.84-.54-1.2-3.48-.39-1.41-.08c3.38-3.86,6.75-7.72,10.13-11.58h-77.92Z"/><path class="cls-2" d="m1766.52,51.2c-20.01-23.25-46.75-26.96-55.43-27.72-24.56-2.15-43.03,7.17-49.89,11.09v119.69l-3.73-2.55-10.13-8.89V42.89c-3.17,2.48-31.16,25.19-30.49,63.75.64,36.89,27,58.25,30.49,60.97l13.86-5.67v16.76c8.24,4.75,28.17,14.66,52.66,11.09,39.77-5.8,70.72-44.1,72.06-83.15,1.06-31-16.89-52.51-19.4-55.43Zm-13.86,94.23c-14.38,17.36-33.49,21.27-38.8,22.17V42.89c5.85.38,18.53,2.05,30.49,11.09,18.72,14.15,21.42,35.59,22.17,41.57.85,6.75,2.71,29.9-13.86,49.89Z"/><path d="m1246.19,12.79c-3.85,6.73-7.7,13.47-11.54,20.2h66.37c-28.86,41.36-57.72,82.72-86.57,124.09,5.77,6.73,11.54,13.47,17.31,20.2,37.51-54.83,75.03-109.66,112.54-164.49h-98.12Z"/><path d="m1410.68,12.79h-51.94c-37.37,54.83-74.74,109.66-112.11,164.49h138.08c6.73-7.7,13.47-15.39,20.2-23.09h-77.92c29.82-43.29,59.64-86.57,89.46-129.86-1.92-3.85-3.85-7.7-5.77-11.54Z"/><path d="m1631.1,94.04c.64,36.89,27,58.25,30.49,60.97V30.29c-3.17,2.48-31.16,25.19-30.49,63.75Z"/><path d="m1725.33,10.89c-24.56-2.15-43.03,7.17-49.89,11.09v144.12c8.24,4.75,28.17,14.66,52.66,11.09,39.77-5.8,70.72-44.1,72.06-83.15,1.06-31-16.89-52.51-19.4-55.43-20.01-23.25-46.75-26.96-55.43-27.72Zm41.57,121.95c-14.38,17.36-33.49,21.27-38.8,22.17V30.29c5.85.38,18.53,2.05,30.49,11.09,18.72,14.15,21.42,35.59,22.17,41.57.85,6.75,2.71,29.9-13.86,49.89Z"/><path class="cls-4" d="m1426.9,94.09c.65,37.09,26.4,59.07,31.55,63.1l4.46,3.48V24.63l-4.46,3.49c-5.39,4.21-32.22,27.2-31.55,65.97Z"/><path class="cls-4" d="m1524.13,8.15c-23.7-2.07-42.44,6.27-51.49,11.44l-1.39.79v147.32l1.38.79c10.21,5.88,25.39,12.22,43.41,12.22,3.57,0,7.25-.25,11.03-.8,39.61-5.77,73-44.26,74.42-85.78,1.07-31.11-16.53-53.21-20.06-57.32-19.15-22.25-44.11-27.51-57.28-28.66Zm39.21,122.94c-11.27,13.59-25.81,18.7-33.92,20.57V33.31c7.32.86,17,3.42,26.07,10.27,11.8,8.92,18.9,22.29,21.1,39.72,1.05,8.3,1.85,29.57-13.24,47.78Z"/><polygon class="cls-4" points="1244.59 10.03 1229.9 35.75 1295.73 35.75 1210.96 157.25 1232.01 181.8 1349.54 10.03 1244.59 10.03"/><polygon class="cls-4" points="1412.38 10.03 1357.28 10.03 1241.41 180.03 1385.96 180.03 1410.98 151.43 1332.24 151.43 1419.65 24.55 1412.38 10.03"/><path class="cls-4" d="m1628.34,94.09c.65,37.09,26.4,59.07,31.55,63.1l4.46,3.48V24.63l-4.46,3.49c-5.39,4.21-32.22,27.2-31.55,65.97Z"/><path class="cls-4" d="m1782.85,36.81c-19.15-22.25-44.11-27.51-57.28-28.66-23.7-2.07-42.44,6.27-51.49,11.44l-1.39.79v147.32l1.38.79c10.21,5.88,25.39,12.22,43.41,12.22,3.57,0,7.25-.25,11.03-.8,39.61-5.77,73-44.26,74.42-85.78,1.07-31.11-16.53-53.21-20.06-57.32Zm-18.07,94.27c-11.27,13.59-25.81,18.7-33.92,20.57V33.31c7.32.86,17,3.42,26.07,10.27,11.8,8.92,18.9,22.29,21.1,39.72,1.05,8.3,1.85,29.57-13.24,47.78Z"/><path class="cls-6" d="m1254.01,4.97c-3.85,6.73-7.7,13.47-11.54,20.2h66.37c-28.86,41.36-57.72,82.72-86.57,124.09,5.77,6.73,11.54,13.47,17.31,20.2,37.51-54.83,75.03-109.66,112.54-164.49h-98.12Z"/><path class="cls-1" d="m1239.83,173.98l-21.04-24.55,84.77-121.5h-65.84l14.69-25.72h104.95l-117.53,171.77Zm-14.08-24.9l13.58,15.85L1346.9,7.73h-91.29l-8.39,14.68h66.91l-88.38,126.67Z"/><path class="cls-6" d="m1418.5,4.97h-51.94c-37.37,54.83-74.74,109.66-112.11,164.49h138.08c6.73-7.7,13.47-15.39,20.2-23.09h-77.92c29.82-43.29,59.64-86.57,89.46-129.86-1.92-3.85-3.85-7.7-5.77-11.54Z"/><path class="cls-1" d="m1393.78,172.22h-144.55L1365.09,2.21h55.11l7.26,14.52-87.4,126.88h78.74l-25.02,28.6Zm-134.12-5.52h131.62l15.37-17.57h-77.09l91.51-132.84-4.28-8.56h-48.78l-108.35,158.97Z"/><path class="cls-6" d="m1638.91,86.22c.64,36.89,27,58.25,30.49,60.97V22.48c-3.17,2.48-31.16,25.19-30.49,63.75Z"/><path class="cls-1" d="m1672.16,152.86l-4.46-3.49c-5.15-4.03-30.9-26.05-31.55-63.1h0c-.68-38.76,26.16-61.75,31.55-65.97l4.46-3.49v136.04Zm-5.52-124.28c-8.52,8.2-25.48,28.25-24.97,57.6h0c.49,28.07,16.43,46.88,24.97,54.98V28.58Z"/><path class="cls-6" d="m1733.15,3.08c-24.56-2.15-43.03,7.17-49.89,11.09v144.12c8.24,4.75,28.17,14.66,52.66,11.09,39.77-5.8,70.72-44.1,72.06-83.15,1.06-31-16.89-52.51-19.4-55.43-20.01-23.25-46.75-26.96-55.43-27.72Zm41.57,121.95c-14.38,17.36-33.49,21.27-38.8,22.17V22.48c5.85.38,18.53,2.05,30.49,11.09,18.72,14.15,21.42,35.59,22.17,41.57.85,6.75,2.71,29.9-13.86,49.89Z"/><path class="cls-1" d="m1725.29,172.9c-18.02,0-33.2-6.34-43.41-12.23l-1.38-.79V12.56l1.39-.79c9.05-5.16,27.79-13.53,51.5-11.44h0c13.17,1.16,38.13,6.41,57.28,28.66,3.54,4.11,21.14,26.19,20.07,57.33-1.42,41.52-34.81,80.01-74.42,85.78-3.78.55-7.46.8-11.03.8Zm-39.27-16.22c11.52,6.38,29.06,12.94,49.5,9.97,37.1-5.41,68.37-41.53,69.7-80.51,1-29.08-15.43-49.7-18.74-53.54-17.87-20.77-41.24-25.68-53.58-26.77h0c-21.1-1.85-37.96,5.1-46.89,9.96v140.89Zm47.14-6.21V19.53l2.94.19c8.28.54,20.55,3,31.97,11.64,13.03,9.85,20.85,24.46,23.24,43.43,1.14,9.01,2,32.12-14.47,52h0c-14.14,17.07-33.01,21.86-40.46,23.13l-3.22.55Zm5.52-124.97v118.34c8.12-1.87,22.67-6.98,33.92-20.57,15.09-18.22,14.29-39.49,13.24-47.79-2.2-17.43-9.3-30.8-21.1-39.72-9.06-6.85-18.74-9.41-26.07-10.27Z"/><path class="cls-6" d="m1437.47,86.22c.64,36.89,27,58.25,30.49,60.97V22.48c-3.17,2.48-31.16,25.19-30.49,63.75Z"/><path class="cls-1" d="m1470.72,152.86l-4.46-3.49c-5.15-4.03-30.9-26.05-31.55-63.1h0c-.68-38.76,26.16-61.75,31.55-65.97l4.46-3.49v136.04Zm-5.52-124.28c-8.52,8.2-25.48,28.25-24.97,57.6h0c.49,28.07,16.43,46.88,24.97,54.98V28.58Z"/><path class="cls-6" d="m1531.71,3.08c-24.56-2.15-43.03,7.17-49.89,11.09v144.12c8.24,4.75,28.17,14.66,52.66,11.09,39.77-5.8,70.72-44.1,72.06-83.15,1.06-31-16.89-52.51-19.4-55.43-20.01-23.25-46.75-26.96-55.43-27.72Zm41.57,121.95c-14.38,17.36-33.49,21.27-38.8,22.17V22.48c5.85.38,18.53,2.05,30.49,11.09,18.72,14.15,21.42,35.59,22.17,41.57.85,6.75,2.71,29.9-13.86,49.89Z"/><path class="cls-1" d="m1523.85,172.9c-18.02,0-33.2-6.34-43.41-12.23l-1.38-.79V12.56l1.39-.79c9.05-5.16,27.79-13.53,51.5-11.44h0c13.17,1.16,38.13,6.41,57.28,28.66,3.54,4.11,21.14,26.19,20.07,57.33-1.42,41.52-34.81,80.01-74.42,85.78-3.78.55-7.46.8-11.03.8Zm-39.27-16.22c11.52,6.38,29.06,12.94,49.5,9.97,37.1-5.41,68.37-41.53,69.7-80.51,1-29.08-15.43-49.7-18.74-53.54-17.87-20.77-41.24-25.68-53.58-26.77h0c-21.1-1.85-37.96,5.1-46.89,9.96v140.89Zm47.14-6.21V19.53l2.94.19c8.28.54,20.55,3,31.97,11.64,13.03,9.85,20.85,24.46,23.24,43.43,1.14,9.01,2,32.12-14.47,52h0c-14.14,17.07-33.01,21.86-40.46,23.13l-3.22.55Zm5.52-124.97v118.34c8.12-1.87,22.67-6.98,33.92-20.57,15.09-18.22,14.29-39.49,13.24-47.79-2.2-17.43-9.3-30.8-21.1-39.72-9.06-6.85-18.74-9.41-26.07-10.27Z"/></svg>